{
  "accessors": [
    {
      "bufferView": 2,
      "componentType": 5126,
      "count": 2404,
      "max": [
        0.31655699014663696,
        1.5418269634246826,
        0.17198200523853302
      ],
      "min": [
        -0.3195739984512329,
        0.10351400077342987,
        -0.16654999554157257
      ],
      "type": "VEC3"
    },
    {
      "bufferView": 2,
      "byteOffset": 28848,
      "componentType": 5126,
      "count": 2404,
      "max": [
        0.9996574521064758,
        0.9798811674118042,
        0.9998345375061035
      ],
      "min": [
        -0.9993706941604614,
        -0.9995541572570801,
        -0.9997706413269043
      ],
      "type": "VEC3"
    },
    {
      "bufferView": 1,
      "componentType": 5126,
      "count": 2404,
      "max": [
        1.0,
        1.0
      ],
      "min": [
        0.0,
        0.0
      ],
      "type": "VEC2"
    },
    {
      "bufferView": 0,
      "componentType": 5125,
      "count": 3462,
      "type": "SCALAR"
    },
    {
      "bufferView": 2,
      "byteOffset": 57696,
      "componentType": 5126,
      "count": 67,
      "max": [
        0.13213400542736053,
        1.6623719930648804,
        0.13372600078582764
      ],
      "min": [
        -0.062066998332738876,
        1.369014024734497,
        0.06129999831318855
      ],
      "type": "VEC3"
    },
    {
      "bufferView": 2,
      "byteOffset": 58500,
      "componentType": 5126,
      "count": 67,
      "max": [
        0.8149240612983704,
        0.9142581224441528,
        0.9996761083602905
      ],
      "min": [
        -0.983126699924469,
        -0.1966218650341034,
        0.172207310795784
      ],
      "type": "VEC3"
    },
    {
      "bufferView": 1,
      "byteOffset": 19232,
      "componentType": 5126,
      "count": 67,
      "max": [
        0.995048999786377,
        1.0
      ],
      "min": [
        0.0,
        0.0
      ],
      "type": "VEC2"
    },
    {
      "bufferView": 0,
      "byteOffset": 13848,
      "componentType": 5125,
      "count": 99,
      "type": "SCALAR"
    },
    {
      "bufferView": 2,
      "byteOffset": 59304,
      "componentType": 5126,
      "count": 476,
      "max": [
        0.2465589940547943,
        1.0933990478515625,
        0.1991019994020462
      ],
      "min": [
        -0.2101600021123886,
        -0.013457000255584717,
        -0.1691810041666031
      ],
      "type": "VEC3"
    },
    {
      "bufferView": 2,
      "byteOffset": 65016,
      "componentType": 5126,
      "count": 476,
      "max": [
        0.998760461807251,
        0.9945154786109924,
        0.9995853304862976
      ],
      "min": [
        -0.9989179372787476,
        -0.9997269511222839,
        -0.9975016713142395
      ],
      "type": "VEC3"
    },
    {
      "bufferView": 1,
      "byteOffset": 19768,
      "componentType": 5126,
      "count": 476,
      "max": [
        1.0,
        1.0
      ],
      "min": [
        0.0,
        0.0
      ],
      "type": "VEC2"
    },
    {
      "bufferView": 0,
      "byteOffset": 14244,
      "componentType": 5125,
      "count": 684,
      "type": "SCALAR"
    },
    {
      "bufferView": 2,
      "byteOffset": 70728,
      "componentType": 5126,
      "count": 2546,
      "max": [
        0.2970849871635437,
        1.7720229625701904,
        0.16239500045776367
      ],
      "min": [
        -0.2984809875488281,
        0.7200490236282349,
        -0.09441100060939789
      ],
      "type": "VEC3"
    },
    {
      "bufferView": 2,
      "byteOffset": 101280,
      "componentType": 5126,
      "count": 2546,
      "max": [
        0.9987735152244568,
        0.9983093738555908,
        0.9997730851173401
      ],
      "min": [
        -0.9998972415924072,
        -0.9993500113487244,
        -0.9998813271522522
      ],
      "type": "VEC3"
    },
    {
      "bufferView": 1,
      "byteOffset": 23576,
      "componentType": 5126,
      "count": 2546,
      "max": [
        0.995048999786377,
        1.0
      ],
      "min": [
        0.0,
        0.0
      ],
      "type": "VEC2"
    },
    {
      "bufferView": 0,
      "byteOffset": 16980,
      "componentType": 5125,
      "count": 3462,
      "type": "SCALAR"
    },
    {
      "bufferView": 2,
      "byteOffset": 131832,
      "componentType": 5126,
      "count": 436,
      "max": [
        0.09054800122976303,
        1.7944790124893188,
        0.14642299711704254
      ],
      "min": [
        -0.08226200193166733,
        1.5685310363769531,
        -0.08260899782180786
      ],
      "type": "VEC3"
    },
    {
      "bufferView": 2,
      "byteOffset": 137064,
      "componentType": 5126,
      "count": 436,
      "max": [
        0.9965071082115173,
        0.9930222034454346,
        0.954522967338562
      ],
      "min": [
        -0.9991110563278198,
        -0.8988041877746582,
        -0.9952162504196167
      ],
      "type": "VEC3"
    },
    {
      "bufferView": 1,
      "byteOffset": 43944,
      "componentType": 5126,
      "count": 436,
      "max": [
        0.995048999786377,
        0.995048999786377
      ],
      "min": [
        0.5,
        0.00494999997317791
      ],
      "type": "VEC2"
    },
    {
      "bufferView": 0,
      "byteOffset": 30828,
      "componentType": 5125,
      "count": 588,
      "type": "SCALAR"
    },
    {
      "bufferView": 2,
      "byteOffset": 142296,
      "componentType": 5126,
      "count": 88,
      "max": [
        0.018665999174118042,
        1.6644090414047241,
        0.12375699728727341
      ],
      "min": [
        -0.05740499868988991,
        1.6495380401611328,
        0.10441400110721588
      ],
      "type": "VEC3"
    },
    {
      "bufferView": 2,
      "byteOffset": 143352,
      "componentType": 5126,
      "count": 88,
      "max": [
        0.8221869468688965,
        0.7439321875572205,
        0.9992978572845459
      ],
      "min": [
        -0.9684705138206482,
        -0.8363377451896667,
        0.08711130917072296
      ],
      "type": "VEC3"
    },
    {
      "bufferView": 1,
      "byteOffset": 47432,
      "componentType": 5126,
      "count": 88,
      "max": [
        0.995048999786377,
        0.00494999997317791
      ],
      "min": [
        0.00494999997317791,
        0.00494999997317791
      ],
      "type": "VEC2"
    },
    {
      "bufferView": 0,
      "byteOffset": 33180,
      "componentType": 5125,
      "count": 132,
      "type": "SCALAR"
    }
  ],
  "asset": {
    "extras": {
      "author": "DavidA3D (https://sketchfab.com/DavidA3D)",
      "license": "CC-BY-NC-4.0 (http://creativecommons.org/licenses/by-nc/4.0/)",
      "source": "https://sketchfab.com/3d-models/nathan-hardy-christopher-meloni-80a2e5f871d549b188aace09cc373663",
      "title": "Nathan Hardy (Christopher Meloni)"
    },
    "generator": "Sketchfab-12.67.0",
    "version": "2.0"
  },
  "bufferViews": [
    {
      "buffer": 0,
      "byteLength": 33708,
      "name": "floatBufferViews",
      "target": 34963
    },
    {
      "buffer": 0,
      "byteLength": 48136,
      "byteOffset": 33708,
      "byteStride": 8,
      "name": "floatBufferViews",
      "target": 34962
    },
    {
      "buffer": 0,
      "byteLength": 144408,
      "byteOffset": 81844,
      "byteStride": 12,
      "name": "floatBufferViews",
      "target": 34962
    }
  ],
  "buffers": [
    {
      "byteLength": 226252,
      "uri": "scene.bin"
    }
  ],
  "materials": [
    {
      "doubleSided": true,
      "name": "BlueDar",
      "pbrMetallicRoughness": {
        "baseColorFactor": [
          0.025136372013874936,
          0.028488287116417037,
          0.06703103757395011,
          1.0
        ],
        "metallicFactor": 0.0,
        "roughnessFactor": 0.9861399049959009
      }
    },
    {
      "doubleSided": true,
      "name": "EyeWhites",
      "pbrMetallicRoughness": {
        "baseColorFactor": [
          0.8,
          0.8,
          0.8,
          1.0
        ],
        "metallicFactor": 0.0,
        "roughnessFactor": 0.8449469889683662
      }
    },
    {
      "doubleSided": true,
      "name": "BlackMet",
      "pbrMetallicRoughness": {
        "baseColorFactor": [
          0.086274,
          0.086274,
          0.086274,
          1.0
        ],
        "roughnessFactor": 0.317879053195435
      }
    },
    {
      "doubleSided": true,
      "name": "Skin.001",
      "pbrMetallicRoughness": {
        "baseColorFactor": [
          0.8,
          0.694118,
          0.615686,
          1.0
        ],
        "metallicFactor": 0.0,
        "roughnessFactor": 0.8622032799244727
      }
    },
    {
      "doubleSided": true,
      "name": "Hair",
      "pbrMetallicRoughness": {
        "baseColorFactor": [
          0.231373,
          0.2,
          0.176471,
          1.0
        ],
        "metallicFactor": 0.0,
        "roughnessFactor": 0.9602732660502697
      }
    },
    {
      "doubleSided": true,
      "name": "BlueLig",
      "pbrMetallicRoughness": {
        "baseColorFactor": [
          0.21568599999999993,
          0.2823530000000002,
          0.35294099999999995,
          1.0
        ],
        "roughnessFactor": 0.317879053195435
      }
    }
  ],
  "meshes": [
    {
      "name": "Hardy.obj_BlueDar_0",
      "primitives": [
        {
          "attributes": {
            "NORMAL": 1,
            "POSITION": 0,
            "TEXCOORD_0": 2
          },
          "indices": 3,
          "material": 0,
          "mode": 4
        }
      ]
    },
    {
      "name": "Hardy.obj_EyeWhites_0",
      "primitives": [
        {
          "attributes": {
            "NORMAL": 5,
            "POSITION": 4,
            "TEXCOORD_0": 6
          },
          "indices": 7,
          "material": 1,
          "mode": 4
        }
      ]
    },
    {
      "name": "Hardy.obj_BlackMet_0",
      "primitives": [
        {
          "attributes": {
            "NORMAL": 9,
            "POSITION": 8,
            "TEXCOORD_0": 10
          },
          "indices": 11,
          "material": 2,
          "mode": 4
        }
      ]
    },
    {
      "name": "Hardy.obj_Skin.001_0",
      "primitives": [
        {
          "attributes": {
            "NORMAL": 13,
            "POSITION": 12,
            "TEXCOORD_0": 14
          },
          "indices": 15,
          "material": 3,
          "mode": 4
        }
      ]
    },
    {
      "name": "Hardy.obj_Hair_0",
      "primitives": [
        {
          "attributes": {
            "NORMAL": 17,
            "POSITION": 16,
            "TEXCOORD_0": 18
          },
          "indices": 19,
          "material": 4,
          "mode": 4
        }
      ]
    },
    {
      "name": "Hardy.obj_BlueLig_0",
      "primitives": [
        {
          "attributes": {
            "NORMAL": 21,
            "POSITION": 20,
            "TEXCOORD_0": 22
          },
          "indices": 23,
          "material": 5,
          "mode": 4
        }
      ]
    }
  ],
  "nodes": [
    {
      "children": [
        1
      ],
      "matrix": [
        1.0,
        0.0,
        0.0,
        0.0,
        0.0,
        2.220446049250313e-16,
        -1.0,
        0.0,
        0.0,
        1.0,
        2.220446049250313e-16,
        0.0,
        0.0,
        0.0,
        0.0,
        1.0
      ],
      "name": "Sketchfab_model"
    },
    {
      "children": [
        2
      ],
      "matrix": [
        1.0,
        0.0,
        0.0,
        0.0,
        0.0,
        0.0,
        1.0,
        0.0,
        0.0,
        -1.0,
        0.0,
        0.0,
        0.0,
        0.0,
        0.0,
        1.0
      ],
      "name": "2824e1ae28104c3da14d62ddade9c65f.fbx"
    },
    {
      "children": [
        3
      ],
      "name": "RootNode"
    },
    {
      "children": [
        4,
        5,
        6,
        7,
        8,
        9
      ],
      "matrix": [
        100.0,
        0.0,
        0.0,
        0.0,
        0.0,
        99.99999999999866,
        1.6292067073209114e-05,
        0.0,
        0.0,
        -1.6292067073209114e-05,
        99.99999999999866,
        0.0,
        0.0,
        0.0,
        0.0,
        1.0
      ],
      "name": "Hardy.obj"
    },
    {
      "mesh": 0,
      "name": "Hardy.obj_BlueDar_0"
    },
    {
      "mesh": 1,
      "name": "Hardy.obj_EyeWhites_0"
    },
    {
      "mesh": 2,
      "name": "Hardy.obj_BlackMet_0"
    },
    {
      "mesh": 3,
      "name": "Hardy.obj_Skin.001_0"
    },
    {
      "mesh": 4,
      "name": "Hardy.obj_Hair_0"
    },
    {
      "mesh": 5,
      "name": "Hardy.obj_BlueLig_0"
    }
  ],
  "scene": 0,
  "scenes": [
    {
      "name": "Sketchfab_Scene",
      "nodes": [
        0
      ]
    }
  ]
}
