{
  "accessors": [
    {
      "bufferView": 2,
      "componentType": 5126,
      "count": 2917,
      "max": [
        0.22096599638462067,
        0.2396019995212555,
        0.4007909893989563
      ],
      "min": [
        -0.22096699476242065,
        -0.2868489921092987,
        -4.199999966658652e-05
      ],
      "type": "VEC3"
    },
    {
      "bufferView": 2,
      "byteOffset": 35004,
      "componentType": 5126,
      "count": 2917,
      "max": [
        0.9999172687530518,
        0.9955914616584778,
        0.9988631010055542
      ],
      "min": [
        -0.9996955990791321,
        -0.999909520149231,
        -0.9958694577217102
      ],
      "type": "VEC3"
    },
    {
      "bufferView": 3,
      "componentType": 5126,
      "count": 2917,
      "max": [
        0.9999980330467224,
        0.9995744824409485,
        0.9998018145561218,
        1.0
      ],
      "min": [
        -0.9999916553497314,
        -0.9999646544456482,
        -0.9998539090156555,
        -1.0
      ],
      "type": "VEC4"
    },
    {
      "bufferView": 1,
      "componentType": 5126,
      "count": 2917,
      "max": [
        0.9921879768371582,
        0.991225004196167
      ],
      "min": [
        0.007319999858736992,
        0.01309600006788969
      ],
      "type": "VEC2"
    },
    {
      "bufferView": 0,
      "componentType": 5125,
      "count": 13158,
      "type": "SCALAR"
    }
  ],
  "asset": {
    "extras": {
      "author": "Bernardo  Lucas (https://sketchfab.com/BernardoLucas)",
      "license": "CC-BY-4.0 (http://creativecommons.org/licenses/by/4.0/)",
      "source": "https://sketchfab.com/3d-models/shiba-free-fire-b8fe9b3387d2486aa1291265438cf2f3",
      "title": "Shiba free fire"
    },
    "generator": "Sketchfab-12.67.0",
    "version": "2.0"
  },
  "bufferViews": [
    {
      "buffer": 0,
      "byteLength": 52632,
      "name": "floatBufferViews",
      "target": 34963
    },
    {
      "buffer": 0,
      "byteLength": 23336,
      "byteOffset": 52632,
      "byteStride": 8,
      "name": "floatBufferViews",
      "target": 34962
    },
    {
      "buffer": 0,
      "byteLength": 70008,
      "byteOffset": 75968,
      "byteStride": 12,
      "name": "floatBufferViews",
      "target": 34962
    },
    {
      "buffer": 0,
      "byteLength": 46672,
      "byteOffset": 145976,
      "byteStride": 16,
      "name": "floatBufferViews",
      "target": 34962
    }
  ],
  "buffers": [
    {
      "byteLength": 192648,
      "uri": "scene.bin"
    }
  ],
  "extensionsRequired": [
    "KHR_materials_pbrSpecularGlossiness"
  ],
  "extensionsUsed": [
    "KHR_materials_pbrSpecularGlossiness"
  ],
  "images": [
    {
      "uri": "textures/Default_OBJ.001_diffuse.png"
    },
    {
      "uri": "textures/Default_OBJ.001_specularGlossiness.png"
    },
    {
      "uri": "textures/Default_OBJ.001_normal.png"
    }
  ],
  "materials": [
    {
      "doubleSided": true,
      "extensions": {
        "KHR_materials_pbrSpecularGlossiness": {
          "diffuseFactor": [
            1.0,
            1.0,
            1.0,
            1.0
          ],
          "diffuseTexture": {
            "index": 0
          },
          "glossinessFactor": 0.19364916731037085,
          "specularFactor": [
            0.05,
            0.05,
            0.05
          ],
          "specularGlossinessTexture": {
            "index": 1
          }
        }
      },
      "name": "Default_OBJ.001",
      "normalTexture": {
        "index": 2
      }
    }
  ],
  "meshes": [
    {
      "name": "Object_0",
      "primitives": [
        {
          "attributes": {
            "NORMAL": 1,
            "POSITION": 0,
            "TANGENT": 2,
            "TEXCOORD_0": 3
          },
          "indices": 4,
          "material": 0,
          "mode": 4
        }
      ]
    }
  ],
  "nodes": [
    {
      "children": [
        1
      ],
      "matrix": [
        1.0,
        0.0,
        0.0,
        0.0,
        0.0,
        2.220446049250313e-16,
        -1.0,
        0.0,
        0.0,
        1.0,
        2.220446049250313e-16,
        0.0,
        0.0,
        0.0,
        0.0,
        1.0
      ],
      "name": "Sketchfab_model"
    },
    {
      "children": [
        2
      ],
      "name": "Shiba.obj.cleaner.materialmerger.gles"
    },
    {
      "mesh": 0,
      "name": "Object_2"
    }
  ],
  "samplers": [
    {
      "magFilter": 9729,
      "minFilter": 9987,
      "wrapS": 10497,
      "wrapT": 10497
    }
  ],
  "scene": 0,
  "scenes": [
    {
      "name": "Sketchfab_Scene",
      "nodes": [
        0
      ]
    }
  ],
  "textures": [
    {
      "sampler": 0,
      "source": 0
    },
    {
      "sampler": 0,
      "source": 1
    },
    {
      "sampler": 0,
      "source": 2
    }
  ]
}
